PathFileType	4	(X/Y/Z)	C:/Users/opensim2020/Desktop/walking_exp_matlab/subject06_walking13_straight_03_cyclic.trc																																																																																																																																																				
DataRate	CameraRate	NumFrames	NumMarkers	Units	OrigDataRate	OrigDataStartFrame	OrigNumFrames																																																																																																																																																
100	100	4	50	mm	100	2291	111																																																																																																																																																
Frame#	Time	LFHD			RFHD			LBHD			RBHD			C7			T10			CLAV			STRN			RBAK			LSHO			LUPA			LELB			LFRM			LWRA			LWRB			LFIN			RSHO			RUPA			RELB			RFRM			RWRA			RWRB			RFIN			LASI			RASI			LPSI			RPSI			LTHI			LKNE			LTIB			LANK			LHEE			LTOE			RTHI			RKNE			RTIB			RANK			RHEE			RTOE			*39			*40			*41			*42			*43			*44			*45			*46			*47			*48			*49		
		X1	Y1	Z1	X2	Y2	Z2	X3	Y3	Z3	X4	Y4	Z4	X5	Y5	Z5	X6	Y6	Z6	X7	Y7	Z7	X8	Y8	Z8	X9	Y9	Z9	X10	Y10	Z10	X11	Y11	Z11	X12	Y12	Z12	X13	Y13	Z13	X14	Y14	Z14	X15	Y15	Z15	X16	Y16	Z16	X17	Y17	Z17	X18	Y18	Z18	X19	Y19	Z19	X20	Y20	Z20	X21	Y21	Z21	X22	Y22	Z22	X23	Y23	Z23	X24	Y24	Z24	X25	Y25	Z25	X26	Y26	Z26	X27	Y27	Z27	X28	Y28	Z28	X29	Y29	Z29	X30	Y30	Z30	X31	Y31	Z31	X32	Y32	Z32	X33	Y33	Z33	X34	Y34	Z34	X35	Y35	Z35	X36	Y36	Z36	X37	Y37	Z37	X38	Y38	Z38	X39	Y39	Z39	X40	Y40	Z40	X41	Y41	Z41	X42	Y42	Z42	X43	Y43	Z43	X44	Y44	Z44	X45	Y45	Z45	X46	Y46	Z46	X47	Y47	Z47	X48	Y48	Z48	X49	Y49	Z49	X50	Y50	Z50
																																																																																																																																																							
84	0.83	376.97659	1658.05298	-1070.17346	359.40802	1644.12476	-940.11237	241.31541	1616.4292	-1089.91382	225.41592	1607.08655	-961.8291	223.38184	1450.9198	-1038.39868	187.98712	1120.62952	-1034.51807	331.57681	1372.26147	-1026.42883	372.89865	1198.72388	-1033.95313	140.3394	1277.46741	-971.88654	293.66196	1409.12488	-1192.54517	324.49307	1211.4873	-1271.99475	343.82324	1101.14771	-1291.26953	418.82983	972.20795	-1319.45935	520.02399	889.53955	-1282.9812	465.35291	861.95813	-1318.24365	535.45251	806.815	-1326.54248	266.3714	1399.9281	-871.11096	215.87811	1200.64258	-792.15741	222.65353	1078.47656	-779.49115	229.90863	958.43066	-760.17322	283.35599	814.45593	-783.44617	225.90996	820.4552	-748.5498	256.39749	741.60284	-742.95563	369.22684	964.12927	-1139.09009	366.6647	969.92035	-918.42682	210.62021	988.49438	-1112.10767	214.76175	986.87061	-943.66479	292.55835	646.88489	-1190.56055	278.80444	483.189	-1165.28223	207.72231	234.97484	-1149.86816	177.00066	65.89434	-1102.67529	134.20943	54.60456	-1057.54578	319.96878	35.07952	-1099.68665	408.2695	651.43201	-855.21411	462.76416	537.72064	-875.19482	371.05493	291.5806	-882.2757	306.29544	118.37153	-927.51373	265.578	103.33521	-976.61963	439.71765	45.21992	-915.22021	273.97388	1704.33557	-1023.2121	NaN	NaN	NaN	NaN	NaN	NaN	NaN	NaN	NaN	NaN	NaN	NaN	NaN	NaN	NaN	NaN	NaN	NaN	NaN	NaN	NaN	NaN	NaN	NaN	NaN	NaN	NaN	NaN	NaN	NaN
85	0.84	387.76001	1657.17102	-1069.44653	370.02017	1643.00671	-939.44519	252.07375	1615.61414	-1089.47046	236.03693	1605.9646	-961.48212	234.17551	1450.0636	-1038.33936	198.39854	1119.87	-1034.66968	342.19968	1371.27783	-1026.34143	383.32898	1197.65125	-1034.19763	150.82622	1276.71912	-972.26318	304.48538	1408.51172	-1192.36584	337.07581	1211.45117	-1272.09253	357.92224	1101.43335	-1291.47302	436.56656	974.59344	-1319.35962	540.72894	895.83368	-1282.87109	486.85593	865.88678	-1317.41101	558.95221	813.31274	-1325.74768	276.93066	1398.77332	-871.02045	224.10962	1199.96106	-792.50537	229.17606	1077.74377	-779.97998	234.21783	957.54358	-760.68292	284.81259	812.44757	-783.89087	227.45438	819.68976	-749.02594	256.56564	740.20465	-743.23346	379.27234	962.82355	-1139.38416	377.34595	969.24213	-918.60742	220.69669	987.367	-1111.83044	225.42426	985.9975	-943.47821	300.50586	645.75983	-1190.11548	285.24103	482.19919	-1164.7915	210.74983	235.01126	-1149.63904	177.49777	66.17678	-1102.60632	134.52612	55.18642	-1057.479	320.36649	35.0657	-1099.73547	419.98035	651.32208	-854.90729	473.65323	537.35352	-875.91119	392.16232	286.42981	-882.74493	338.76691	109.01327	-927.67596	299.67532	91.83702	-976.89026	476.19113	43.25496	-914.02545	284.61902	1703.43188	-1022.50647	NaN	NaN	NaN	NaN	NaN	NaN	NaN	NaN	NaN	NaN	NaN	NaN	NaN	NaN	NaN	NaN	NaN	NaN	NaN	NaN	NaN	NaN	NaN	NaN	NaN	NaN	NaN	NaN	NaN	NaN
86	0.85	398.60147	1656.2323	-1068.70361	380.6398	1641.75842	-938.7511	263.01215	1614.62158	-1089.00366	246.68994	1604.70715	-961.10156	244.94737	1449.04321	-1038.22205	208.93126	1119.09973	-1034.78992	352.9715	1370.1593	-1026.24365	393.89359	1196.45862	-1034.33679	161.37894	1275.83557	-972.57959	315.33392	1407.73352	-1192.13	349.61484	1211.30469	-1272.24182	371.9277	1101.4021	-1291.69153	453.97763	976.84863	-1319.11816	561.06256	902.1767	-1282.57056	507.90918	869.8866	-1316.47168	581.90955	819.89783	-1324.65771	287.48706	1397.552	-870.89484	231.96193	1199.16028	-793.2334	235.83052	1076.86572	-780.5625	238.75119	956.7113	-761.09393	286.74884	810.70135	-784.17426	229.42932	818.9856	-749.43445	257.01813	739.00739	-743.50922	389.03552	961.30402	-1139.25073	387.98676	968.28473	-918.75409	230.91576	986.15607	-1111.4845	235.99539	985.03278	-943.12274	307.71356	644.19562	-1189.88416	291.48029	481.32971	-1164.67102	213.46251	234.91455	-1149.8512	177.9326	66.51101	-1102.53479	134.82841	55.78226	-1057.43738	320.595	35.07882	-1099.8324	430.50595	650.57056	-854.98608	483.80438	536.3974	-876.45135	413.32581	281.17548	-882.97949	371.75732	100.44839	-927.62018	334.1105	81.55651	-977.40192	512.51038	41.79448	-912.92523	295.37103	1702.28357	-1021.815	NaN	NaN	NaN	NaN	NaN	NaN	NaN	NaN	NaN	NaN	NaN	NaN	NaN	NaN	NaN	NaN	NaN	NaN	NaN	NaN	NaN	NaN	NaN	NaN	NaN	NaN	NaN	NaN	NaN	NaN
87	0.86	409.44659	1655.13	-1067.9248	391.30511	1640.38184	-938.008	273.90482	1613.48572	-1088.48474	257.40814	1603.28333	-960.61261	255.88753	1447.90002	-1038.04541	219.5645	1117.89844	-1034.76965	363.83359	1368.89807	-1026.02222	404.58508	1195.16931	-1034.40161	172.07161	1274.80322	-972.81805	326.24731	1406.78894	-1191.79614	362.15714	1210.96729	-1272.16992	385.4191	1101.35535	-1291.50916	471.02686	979.02905	-1318.66589	580.82794	908.46997	-1282.01465	528.58844	873.91638	-1315.34204	604.25275	826.49249	-1323.36047	298.10733	1396.23364	-870.73572	240.36453	1198.43042	-793.48303	242.57352	1076.19312	-780.8609	243.49922	955.88861	-761.48077	289.00174	809.07697	-784.27881	231.67879	818.3125	-749.71509	257.89481	737.88135	-743.63348	399.37332	959.77856	-1139.31604	398.64764	967.13116	-918.7002	240.64917	984.97382	-1111.09094	246.65976	983.89294	-942.67133	316.0379	643.49994	-1189.26306	297.3992	480.29803	-1164.21448	216.04343	234.89124	-1149.96777	178.2639	66.85479	-1102.54163	135.09679	56.4464	-1057.43188	320.55386	34.71905	-1099.72314	440.63779	649.2019	-854.83282	493.11533	534.68982	-876.8028	434.44803	275.95279	-883.06848	404.91794	92.71416	-927.41156	368.63303	71.96132	-977.27869	548.66565	41.03727	-911.94727	306.10202	1701.0498	-1021.06628	NaN	NaN	NaN	NaN	NaN	NaN	NaN	NaN	NaN	NaN	NaN	NaN	NaN	NaN	NaN	NaN	NaN	NaN	NaN	NaN	NaN	NaN	NaN	NaN	NaN	NaN	NaN	NaN	NaN	NaN
